<svg width="86" height="86" viewBox="0 0 86 86" fill="none" xmlns="http://www.w3.org/2000/svg">
<circle cx="43" cy="43" r="43" fill="black"/>
<path d="M48.808 45.144V60H45.448V45.816C45.448 44.504 45.128 43.312 44.488 42.24C43.848 41.168 42.992 40.312 41.92 39.672C40.848 39.032 39.656 38.712 38.344 38.712C37.048 38.712 35.856 39.032 34.768 39.672C33.696 40.312 32.84 41.168 32.2 42.24C31.56 43.312 31.24 44.504 31.24 45.816V60H27.88V24H31.24V39.312C32.088 38.096 33.192 37.128 34.552 36.408C35.912 35.688 37.392 35.328 38.992 35.328C40.8 35.328 42.448 35.768 43.936 36.648C45.424 37.528 46.608 38.712 47.488 40.2C48.368 41.688 48.808 43.336 48.808 45.144ZM54.5504 60.624C54.0224 60.624 53.5744 60.432 53.2064 60.048C52.8384 59.68 52.6544 59.224 52.6544 58.68C52.6544 58.168 52.8384 57.728 53.2064 57.36C53.5744 56.976 54.0224 56.784 54.5504 56.784C55.0944 56.784 55.5504 56.976 55.9184 57.36C56.3024 57.728 56.4944 58.168 56.4944 58.68C56.4944 59.224 56.3024 59.68 55.9184 60.048C55.5504 60.432 55.0944 60.624 54.5504 60.624Z" fill="#38DC93"/>
</svg>
